<svg xmlns="http://www.w3.org/2000/svg" xmlns:xlink="http://www.w3.org/1999/xlink" width="26" height="25" viewBox="0 0 26 25"><defs><path id="m6gca" d="M1317.94 1728.36l9.4 9.43a1.37 1.37 0 0 1 .46.5 1.37 1.37 0 0 1-.5 1.9l-9.36 9.4a1.36 1.36 0 1 1-1.93-1.92l7.26-7.3h-15.9a1.38 1.38 0 0 1 0-2.75h15.94l-7.3-7.33a1.37 1.37 0 0 1 1.93-1.93z"/><path id="m6gcb" d="M1317.94 1728.36l9.4 9.43a1.37 1.37 0 0 1 .46.5 1.37 1.37 0 0 1-.5 1.9l-9.36 9.4a1.36 1.36 0 1 1-1.93-1.92l7.26-7.3h-15.9a1.38 1.38 0 0 1 0-2.75h15.94l-7.3-7.33a1.37 1.37 0 0 1 1.93-1.93z"/><clipPath id="m6gcc"><use fill="#fff" xlink:href="#m6gca"/></clipPath></defs><g><g transform="translate(-1304 -1726)"><use fill="#fff" fill-opacity="0" stroke="#fff" stroke-miterlimit="50" stroke-width="6" clip-path="url(&quot;#m6gcc&quot;)" xlink:href="#m6gcb"/></g></g></svg>